<?xml version="1.0" standalone="no"?>
<!DOCTYPE svg PUBLIC "-//W3C//DTD SVG 20010904//EN"
 "http://www.w3.org/TR/2001/REC-SVG-20010904/DTD/svg10.dtd">
<svg version="1.0" xmlns="http://www.w3.org/2000/svg"
 width="150.000000pt" height="150.000000pt" viewBox="0 0 150.000000 150.000000"
 preserveAspectRatio="xMidYMid meet">
<metadata>
Created by potrace 1.11, written by Peter Selinger 2001-2013
</metadata>
<g transform="translate(0.000000,150.000000) scale(0.100000,-0.100000)"
fill="#000000" stroke="none">
<path d="M605 1485 c-292 -62 -515 -277 -584 -562 -22 -92 -21 -277 2 -358 66
-230 217 -408 423 -500 178 -79 403 -82 590 -7 231 93 415 322 452 562 14 87
8 238 -12 315 -65 253 -259 455 -510 532 -78 23 -85 24 -196 28 -61 2 -130 -2
-165 -10z"/>
</g>
</svg>
